<svg width="6.8756mm" height="14.82mm" version="1.1" viewBox="0 0 6.8756 14.82" xmlns="http://www.w3.org/2000/svg">
 <g transform="translate(-73.356 -132.39)">
  <g transform="matrix(1.2258 0 0 1.2717 -735.43 -103.14)" fill="none" stroke="#000" stroke-width=".15701">
   <path d="m663.94 188.44s0.38416 0.29093 0.72437 0.77216c0.3805 0.53823 0.69683 1.1992 0.70218 1.3443 5e-3 0.14504-0.089 0.39486-0.19878 0.44434-0.10977 0.0495-0.40947-0.0127-0.61974 0.0117-0.10522 6e-3 -0.23588 0.0346-0.27093 0.17482-0.0351 0.14031-0.11128 0.28971-0.0528 0.57035 0.0585 0.28064 0.1951 0.48258 0.24188 0.58782 0.0468 0.10524 0.17766 0.39987 0.19296 0.58468s-2e-5 0.30985-0.076 0.49109c-0.1111 0.1579-0.28144 0.34658-0.38587 0.53788s-0.11456 0.31759-0.0526 0.54374c0.0619 0.22615 0.21279 0.70304 0.25142 0.84775 0.0386 0.14471 0.0707 0.25866 0.10794 0.40796 0.0372 0.1493 0.0825 0.35106 0.0331 0.51301-0.0495 0.16195-0.14442 0.24437-0.24828 0.33011-0.10386 0.0857-0.24543 0.15802-0.38114 0.1699-0.13571 0.0119-0.30388-9e-3 -0.37925-0.0883-0.0754-0.0795-0.0966-0.16051-0.11521-0.24971-0.0186-0.0892 0.025-0.2003 0.0948-0.27382 0.0698-0.0735 0.19112-0.073 0.25672-0.10755 0.0656-0.0346 0.10356-0.14434 0.10523-0.25725 2e-3 -0.11291-0.0712-0.24362-0.14031-0.37418-0.0691-0.13056-0.29305-0.34382-0.29305-0.34382s-0.40749-0.34018-0.46597-0.36357c-0.0585-0.0233-0.51818-0.32513-0.54152-0.45376-0.0234-0.12863-0.0339-0.2361 5e-3 -0.39982 0.0393-0.16372 0.15818-0.29053 0.20405-0.33096 0.0459-0.0404 0.29858-0.21943 0.36899-0.30788 0.0704-0.0884 0.2404-0.28059 0.2404-0.28059s-0.044-0.057-0.10245 0.0248c-0.0585 0.0819-0.24556 0.29234-0.24556 0.29234-0.10763 0.10783 9e-3 0.0543-0.36209 0.37441-0.0862 0.11135-0.13968 0.29365-0.1328 0.50231 7e-3 0.20866 0.11295 0.25323 0.23529 0.35803s0.22633 0.15045 0.35314 0.23833c0.12681 0.0879 0.36248 0.28061 0.36248 0.28061s0.0935 0.33912 0.0819 0.38587c-0.0116 0.0468-0.0248 0.35517-0.0643 0.45604-0.0395 0.10086-0.22505 0.32137-0.38002 0.39172-0.15498 0.0703-0.27152 0.0893-0.38588-6e-3 -0.11436-0.0951-0.14764-0.21861-0.14034-0.36248 7e-3 -0.14387 0.0585-0.37416 0.0936-0.42095 0.0351-0.0468 0.13967-0.14962 0.10522-0.26895-0.0411-0.14248-0.40923-0.35083-0.4794-0.36248-0.0702-0.0116-0.39756-0.0935-0.47942-0.15201-0.0818-0.0585-0.39649-0.2156-0.5145-0.35663s-0.19827-0.22836-0.18708-0.38002c0.0112-0.15166 0.10655-0.28902 0.22218-0.45603 0.20318-0.2923 0.43006-0.46342 0.69336-0.73079 0.0144-0.0343-0.10333-0.0877-0.0885-0.3506 0.0148-0.26288 0.0616-2.5552 0.0616-2.5552l-0.0165 0.47529s-0.48204 0.27993-0.70502 0.36435c-0.22298 0.0844-0.45599 0.17402-0.65197 0.16825-0.19598-6e-3 -0.41136-0.0394-0.49323-0.15744-0.0457-0.0659-0.021-0.11038-0.0497-0.15984-0.0227-0.0391-0.063-0.0755-0.0631-0.13409-1.2e-4 -0.072 0.0358-0.11831 0.0424-0.17124 5e-3 -0.0445-0.0201-0.0971-4e-3 -0.13973 0.0354-0.0934 0.0311-0.1335 0.10419-0.1623 0.0731-0.0288 0.11438-0.0378 0.18809 0.022 0.0737 0.0601 0.0792 0.15785 0.21048 0.21046 0.1313 0.0526 0.34345-0.0161 0.45019-0.0876s0.39548-0.35863 0.45396-0.40542c0.0585-0.0468 0.33883-0.38219 0.42331-0.55022 0.0845-0.16802 0.13395-0.44152 0.13395-0.44152s-0.0163-0.18887-0.0932-0.36392c-0.0463-0.10544-0.14667-0.34445-0.18631-0.46329-0.0397-0.11884-0.0517-0.30011-0.0868-0.43761s-0.044-0.43074-0.044-0.43074-0.0526-0.49402 0.14327-0.90276c0.19588-0.40875 0.68185-0.7965 1.1742-0.7965s0.85584 0.15072 1.0955 0.40012 0.38774 0.6945 0.41371 1.0042c0.0265 0.31594-3e-3 0.65845-0.0754 0.88591-0.0324 0.10231-0.0458 0.19815-0.0833 0.27696-0.0458 0.0964-0.1148 0.17143-0.14121 0.25259-0.048 0.14751-0.14604 0.31204-0.14604 0.31204z"/>
   <path d="m661.84 188.37s0.14236 0.28101 0.39434 0.46193c0.25197 0.18092 0.40992 0.19822 0.70492 0.19822s0.61356-0.1983 0.76129-0.37818c0.14772-0.17988 0.2881-0.43928 0.2881-0.43928"/>
   <path d="m662.09 186.42s-0.04 0.34734-0.0507 0.43503c-0.0107 0.0877 0.0332 0.1204 0.0332 0.1204"/>
   <path d="m661.91 192.73s0.16863 0.26263 0.44647 0.41481 0.52163 0.13765 0.52163 0.13765"/>
   <path d="m664.07 189.56s-0.14515 0.30777-0.11495 0.4053c0.0302 0.0975 0.46153 0.20228 0.46153 0.20228"/>
   <path d="m663.99 189.98c-0.32825 0.10912-0.33326 0.0165-0.64581-0.0927 0 0-0.33 2e-3 -0.37673 0.11759-0.0467 0.11592 0.0497 0.10682 0.0289 0.18395-0.0208 0.0771-0.0913 0.086-0.0827 0.16745 9e-3 0.0814 0.0117 0.0649 0.0579 0.14051 0.0462 0.0756-0.0494 0.0928 0.0867 0.23567 0.1361 0.1429 0.89297-0.0331 0.89297-0.0331l0.61184 0.30591"/>
   <path d="m662.54 188.56s-0.0467 0.14617 0.32116 0.14617c0.36784 0 0.32115-0.14617 0.32115-0.14617"/>
   <path d="m662.31 186.42s-0.0342 0.28887-0.0448 0.37656c-0.0107 0.0877 0.0332 0.1204 0.0332 0.1204"/>
   <path d="m662.54 186.42s-0.0341 0.17779-0.0448 0.26548c-0.0107 0.0877 0.0332 0.1204 0.0332 0.1204"/>
   <path d="m662.78 186.42s-0.0342 0.14856-0.0448 0.23625c-0.0107 0.0877 0.0332 0.1204 0.0332 0.1204"/>
   <path d="m662.18 187.84s0.0799 0.12609 0.2253 0.12609c0.14539 0 0.22531-0.12609 0.22531-0.12609"/>
   <path d="m663.06 187.84s0.0799 0.12609 0.2253 0.12609c0.14539 0 0.22531-0.12609 0.22531-0.12609"/>
   <path d="m662.44 193.74c-0.0661-0.0249-0.2398-0.17362-0.2398-0.17362"/>
  </g>
  <g fill="#d40000">
   <circle cx="77.377" cy="134.81" r=".5203"/>
   <circle cx="75.773" cy="137.65" r=".5203"/>
   <circle cx="76.976" cy="141.36" r=".5203"/>
   <circle cx="74.971" cy="144.03" r=".5203"/>
  </g>
  <circle cx="78.679" cy="143.27" r=".5203" fill="#d40000"/>
 </g>
</svg>
