<svg width="6.8756mm" height="14.82mm" version="1.1" viewBox="0 0 6.8756 14.82" xmlns="http://www.w3.org/2000/svg">
 <g transform="translate(-73.356 -132.39)">
  <path transform="matrix(.26458 0 0 .26458 73.356 132.39)" d="m12.994 20.039a7.9665 7.9665 0 0 0-7.9668 7.9668 7.9665 7.9665 0 0 0 7.9668 7.9668 7.9665 7.9665 0 0 0 7.9648-7.9668 7.9665 7.9665 0 0 0-7.9648-7.9668zm0 3a4.9665 4.9665 0 0 1 4.9648 4.9668 4.9665 4.9665 0 0 1-4.9648 4.9668 4.9665 4.9665 0 0 1-4.9668-4.9668 4.9665 4.9665 0 0 1 4.9668-4.9668z" stroke-width="3.7795"/>
 </g>
</svg>
