<svg width="6.8756mm" height="6.8756mm" version="1.1" viewBox="0 0 6.8756 6.8756" xmlns="http://www.w3.org/2000/svg">
 <g transform="matrix(1.894 0 0 1.894 -2.1318 -3.0848)" fill="#d40000">
  <path d="m1.5349 2.0379c-0.098459 0.098459-0.098825 0.25708-3.654e-4 0.35554l2.4566 2.4566c0.098459 0.098459 0.25708 0.098094 0.35554-3.654e-4 0.098459-0.098459 0.098459-0.25672 0-0.35518l-2.4566-2.4566c-0.098459-0.098459-0.25672-0.098459-0.35518 0z"/>
  <path d="m4.3466 2.0379c0.098459 0.098459 0.098825 0.25708 3.654e-4 0.35554l-2.4566 2.4566c-0.098459 0.098459-0.25708 0.098094-0.35554-3.654e-4 -0.098459-0.098459-0.098459-0.25672 0-0.35518l2.4566-2.4566c0.098459-0.098459 0.25672-0.098459 0.35518 0z"/>
 </g>
</svg>
