<svg width="6.8756mm" height="6.8756mm" version="1.1" viewBox="0 0 6.8756 6.8756" xmlns="http://www.w3.org/2000/svg">
 <g transform="matrix(1.0089 .58251 -.58251 1.0089 1.7221 -1.8105)">
  <g transform="matrix(.91461 0 0 .91461 .30147 .26927)" fill="#4d4d4d">
   <path d="m3.6603 0.57834 1.0438 0.27981-1.4096 5.263-1.0438-0.27981z"/>
   <path d="m2.2513 5.837 1.0443 0.27973c-0.30299 0.30299-0.6965 0.67376-0.73729 0.66283-0.040796-0.010927-0.18877-0.50128-0.30701-0.94256z"/>
   <path d="m4.2845-0.23562 0.28655 0.076778c0.20498 0.054922 0.30369 0.31726 0.28609 0.38295l-0.14144 0.52791-1.0119-0.27112 0.14144-0.52791c0.017602-0.065696 0.24215-0.24142 0.43924-0.18861z"/>
  </g>
 </g>
</svg>
