<?xml version="1.0" encoding="UTF-8" standalone="no"?>
<!-- Created with Inkscape (http://www.inkscape.org/) -->

<svg
   xmlns:dc="http://purl.org/dc/elements/1.1/"
   xmlns:cc="http://creativecommons.org/ns#"
   xmlns:rdf="http://www.w3.org/1999/02/22-rdf-syntax-ns#"
   xmlns:svg="http://www.w3.org/2000/svg"
   xmlns="http://www.w3.org/2000/svg"
   xmlns:sodipodi="http://sodipodi.sourceforge.net/DTD/sodipodi-0.dtd"
   xmlns:inkscape="http://www.inkscape.org/namespaces/inkscape"
   width="512"
   height="512"
   viewBox="0 0 135.46667 135.46667"
   version="1.1"
   id="svg8"
   sodipodi:docname="logoInk.svg"
   inkscape:version="0.92.4 (5da689c313, 2019-01-14)"
   inkscape:export-filename="/home/pacomendez/Documentos/Billings/graphing-billings/public/logo192.png"
   inkscape:export-xdpi="36"
   inkscape:export-ydpi="36">
  <defs
     id="defs2">
    <marker
       inkscape:isstock="true"
       style="overflow:visible"
       id="marker1026"
       refX="0.0"
       refY="0.0"
       orient="auto"
       inkscape:stockid="Arrow2Mstart">
      <path
         transform="scale(0.6) translate(0,0)"
         d="M 8.7185878,4.0337352 L -2.2072895,0.016013256 L 8.7185884,-4.0017078 C 6.9730900,-1.6296469 6.9831476,1.6157441 8.7185878,4.0337352 z "
         style="fill-rule:evenodd;stroke-width:0.625;stroke-linejoin:round;stroke:#4d4d4d;stroke-opacity:1;fill:#4d4d4d;fill-opacity:1"
         id="path1024" />
    </marker>
    <marker
       inkscape:stockid="Arrow2Mstart"
       orient="auto"
       refY="0.0"
       refX="0.0"
       id="Arrow2Mstart"
       style="overflow:visible"
       inkscape:isstock="true"
       inkscape:collect="always">
      <path
         id="path1227"
         style="fill-rule:evenodd;stroke-width:0.625;stroke-linejoin:round;stroke:#666666;stroke-opacity:1;fill:#666666;fill-opacity:1"
         d="M 8.7185878,4.0337352 L -2.2072895,0.016013256 L 8.7185884,-4.0017078 C 6.9730900,-1.6296469 6.9831476,1.6157441 8.7185878,4.0337352 z "
         transform="scale(0.6) translate(0,0)" />
    </marker>
    <marker
       inkscape:stockid="TriangleInL"
       orient="auto"
       refY="0.0"
       refX="0.0"
       id="TriangleInL"
       style="overflow:visible"
       inkscape:isstock="true">
      <path
         id="path1336"
         d="M 5.77,0.0 L -2.88,5.0 L -2.88,-5.0 L 5.77,0.0 z "
         style="fill-rule:evenodd;stroke:#666666;stroke-width:1pt;stroke-opacity:1;fill:#666666;fill-opacity:1"
         transform="scale(-0.8)" />
    </marker>
  </defs>
  <sodipodi:namedview
     id="base"
     pagecolor="#ffffff"
     bordercolor="#666666"
     borderopacity="1.0"
     inkscape:pageopacity="0.0"
     inkscape:pageshadow="2"
     inkscape:zoom="0.5"
     inkscape:cx="-354.19622"
     inkscape:cy="222.02116"
     inkscape:document-units="mm"
     inkscape:current-layer="layer1"
     showgrid="false"
     showguides="true"
     inkscape:guide-bbox="true"
     inkscape:window-width="1920"
     inkscape:window-height="1043"
     inkscape:window-x="0"
     inkscape:window-y="0"
     inkscape:window-maximized="1"
     fit-margin-top="0"
     fit-margin-left="0"
     fit-margin-right="0"
     fit-margin-bottom="0"
     units="px" />
  <metadata
     id="metadata5">
    <rdf:RDF>
      <cc:Work
         rdf:about="">
        <dc:format>image/svg+xml</dc:format>
        <dc:type
           rdf:resource="http://purl.org/dc/dcmitype/StillImage" />
        <dc:title />
      </cc:Work>
    </rdf:RDF>
  </metadata>
  <g
     inkscape:label="Capa 1"
     inkscape:groupmode="layer"
     id="layer1"
     style="opacity:1"
     transform="translate(-33.562243,-84.471094)">
    <path
       inkscape:connector-curvature="0"
       style="opacity:1;fill:#b3b3b3;fill-opacity:1;stroke:none;stroke-width:0.18959002;stroke-miterlimit:4;stroke-dasharray:none"
       d="m 101.29582,84.83587 c -37.206807,-1.1e-4 -67.36891,30.16199 -67.368801,67.3688 1.55e-4,37.20662 30.162181,67.36843 67.368801,67.36832 37.20642,-1.6e-4 67.36816,-30.1619 67.36832,-67.36832 1.1e-4,-37.20662 -30.1617,-67.368645 -67.36832,-67.3688 z m -3e-5,26.18048 c 22.74766,6e-5 41.18826,18.44065 41.18832,41.18832 -6e-5,22.74766 -18.44066,41.18826 -41.18832,41.18831 -22.747826,1.9e-4 -41.188694,-18.44048 -41.188741,-41.18831 4.7e-5,-22.74783 18.440915,-41.1885 41.188741,-41.18832 z"
       id="path952"
       sodipodi:nodetypes="cccccccccc" />
    <path
       style="opacity:1;fill:#d40000;fill-opacity:1;stroke:none;stroke-width:0.24927559;stroke-miterlimit:4;stroke-dasharray:none"
       d="m 64.6747,96.12029 c -18.961529,12.35029 -30.410474,33.43503 -30.442537,56.06396 l 25.373795,0.0552 c 0.01342,-14.06094 7.120166,-27.166 18.897463,-34.84751 z"
       id="path916"
       inkscape:connector-curvature="0"
       sodipodi:nodetypes="ccccc" />
    <path
       style="opacity:1;fill:#ffffff;fill-opacity:1;stroke:none;stroke-width:0.24927559;stroke-miterlimit:4;stroke-dasharray:none"
       d="m 114.38042,86.499107 -4.95961,24.908663 c 19.46365,3.89655 33.56329,21.00512 33.56572,40.85496 6.5363,-0.0435 19.5179,-0.10138 25.374,-0.0522 0,-29.02374 -19.93529,-58.945113 -53.98011,-65.711393 z"
       id="path932"
       inkscape:connector-curvature="0"
       sodipodi:nodetypes="ccccc" />
    <path
       style="opacity:1;fill:#008033;fill-opacity:1;stroke:none;stroke-width:0.24927559;stroke-miterlimit:4;stroke-dasharray:none"
       d="m 34.233633,152.13953 -0.0028,0.0709 c -1.91e-4,37.01464 30.006001,67.02107 67.020637,67.02116 36.074,0 67.10908,-29.21298 67.10908,-67.02112 l -25.37401,0.0522 c 0,23.08758 -18.47871,41.65221 -41.72998,41.65221 -23.003936,1.3e-4 -41.652349,-18.64829 -41.652219,-41.65224 l 0.0033,-0.0627 z"
       id="path944"
       inkscape:connector-curvature="0"
       sodipodi:nodetypes="ccccccccc" />
    <path
       sodipodi:nodetypes="cc"
       inkscape:connector-curvature="0"
       id="path1030"
       d="m 143.75432,152.19906 h 23.83377"
       style="fill:#999999;stroke:#4d4d4d;stroke-width:1.54786718;stroke-linecap:square;stroke-linejoin:miter;stroke-miterlimit:4;stroke-dasharray:none;stroke-opacity:1" />
    <path
       sodipodi:nodetypes="ccccc"
       inkscape:transform-center-y="16.631"
       inkscape:transform-center-x="32.456398"
       style="opacity:1;fill:#ffcc00;fill-opacity:1;stroke:none;stroke-width:0.24927559;stroke-miterlimit:4;stroke-dasharray:none"
       d="M 114.38042,86.499107 C 92.185547,82.088037 74.47175,89.596599 64.6747,96.12029 l 13.828721,21.27172 c 5.385502,-3.72053 17.124446,-8.71647 30.917389,-5.98424 z"
       id="path877"
       inkscape:connector-curvature="0" />
    <path
       style="fill:#999999;stroke:#4d4d4d;stroke-width:1.54865766;stroke-linecap:round;stroke-linejoin:miter;stroke-miterlimit:4;stroke-dasharray:none;stroke-opacity:1"
       d="m 35.016121,152.17491 66.235879,0.0242"
       id="path821"
       inkscape:connector-curvature="0"
       sodipodi:nodetypes="cc" />
    <path
       sodipodi:nodetypes="cc"
       inkscape:connector-curvature="0"
       id="path831"
       d="M 160.56295,181.91768 101.252,152.19906"
       style="fill:none;stroke:#4d4d4d;stroke-width:1.54865766;stroke-linecap:round;stroke-linejoin:miter;stroke-miterlimit:4;stroke-dasharray:none;stroke-opacity:1" />
    <path
       sodipodi:nodetypes="cc"
       inkscape:connector-curvature="0"
       id="path827"
       d="M 65.136981,96.741239 101.252,152.19906"
       style="fill:#999999;stroke:#4d4d4d;stroke-width:1.54865766;stroke-linecap:round;stroke-linejoin:miter;stroke-miterlimit:4;stroke-dasharray:none;stroke-opacity:1" />
    <path
       style="fill:#4d4d4d;stroke:#4d4d4d;stroke-width:1.54865766;stroke-linecap:round;stroke-linejoin:miter;stroke-miterlimit:4;stroke-dasharray:none;stroke-opacity:1;marker-start:url(#marker1026)"
       d="M 113.91085,89.030446 101.252,152.19906"
       id="path829"
       inkscape:connector-curvature="0"
       sodipodi:nodetypes="cc" />
    <circle
       style="opacity:1;fill:#0044aa;fill-opacity:1;stroke:none;stroke-width:0.67787939;stroke-miterlimit:4;stroke-dasharray:none"
       id="path879"
       cx="101.29558"
       cy="152.20442"
       r="5.3299022" />
    <g
       id="g1137"
       transform="translate(-207.06085,0.89667809)">
      <g
         id="g1135">
        <path
           id="path1077"
           d="m 101.29581,87.116927 a 65.087541,65.087541 0 0 0 -65.087733,65.087733 65.087541,65.087541 0 0 0 65.087733,65.08727 65.087541,65.087541 0 0 0 65.08727,-65.08727 65.087541,65.087541 0 0 0 -65.08727,-65.087733 z m 0,19.769593 a 45.318232,45.318232 0 0 1 45.31814,45.31814 45.318232,45.318232 0 0 1 -45.31814,45.31814 45.318232,45.318232 0 0 1 -45.318608,-45.31814 45.318232,45.318232 0 0 1 45.318608,-45.31814 z"
           style="opacity:1;fill:#e6e6e6;fill-opacity:1;stroke:none;stroke-width:0.18363325;stroke-miterlimit:4;stroke-dasharray:none"
           inkscape:connector-curvature="0" />
        <g
           style="stroke:#666666;stroke-width:0.2434898;stroke-miterlimit:4;stroke-dasharray:none"
           id="g1107"
           transform="matrix(2.2451236,0,0,2.2451236,-49.299171,-179.31337)">
          <g
             id="g1105"
             transform="matrix(1.2258,0,0,1.2717,-735.43,-103.14)"
             style="fill:none;stroke:#666666;stroke-width:0.19501977;stroke-miterlimit:4;stroke-dasharray:none">
            <path
               style="stroke:#666666;stroke-width:0.19501977;stroke-miterlimit:4;stroke-dasharray:none"
               id="path1079"
               d="m 663.94,188.44 c 0,0 0.38416,0.29093 0.72437,0.77216 0.3805,0.53823 0.69683,1.1992 0.70218,1.3443 0.005,0.14504 -0.089,0.39486 -0.19878,0.44434 -0.10977,0.0495 -0.40947,-0.0127 -0.61974,0.0117 -0.10522,0.006 -0.23588,0.0346 -0.27093,0.17482 -0.0351,0.14031 -0.11128,0.28971 -0.0528,0.57035 0.0585,0.28064 0.1951,0.48258 0.24188,0.58782 0.0468,0.10524 0.17766,0.39987 0.19296,0.58468 0.0153,0.18481 -2e-5,0.30985 -0.076,0.49109 -0.1111,0.1579 -0.28144,0.34658 -0.38587,0.53788 -0.10443,0.1913 -0.11456,0.31759 -0.0526,0.54374 0.0619,0.22615 0.21279,0.70304 0.25142,0.84775 0.0386,0.14471 0.0707,0.25866 0.10794,0.40796 0.0372,0.1493 0.0825,0.35106 0.0331,0.51301 -0.0495,0.16195 -0.14442,0.24437 -0.24828,0.33011 -0.10386,0.0857 -0.24543,0.15802 -0.38114,0.1699 -0.13571,0.0119 -0.30388,-0.009 -0.37925,-0.0883 -0.0754,-0.0795 -0.0966,-0.16051 -0.11521,-0.24971 -0.0186,-0.0892 0.025,-0.2003 0.0948,-0.27382 0.0698,-0.0735 0.19112,-0.073 0.25672,-0.10755 0.0656,-0.0346 0.10356,-0.14434 0.10523,-0.25725 0.002,-0.11291 -0.0712,-0.24362 -0.14031,-0.37418 -0.0691,-0.13056 -0.29305,-0.34382 -0.29305,-0.34382 0,0 -0.40749,-0.34018 -0.46597,-0.36357 -0.0585,-0.0233 -0.51818,-0.32513 -0.54152,-0.45376 -0.0234,-0.12863 -0.0339,-0.2361 0.005,-0.39982 0.0393,-0.16372 0.15818,-0.29053 0.20405,-0.33096 0.0459,-0.0404 0.29858,-0.21943 0.36899,-0.30788 0.0704,-0.0884 0.2404,-0.28059 0.2404,-0.28059 0,0 -0.044,-0.057 -0.10245,0.0248 -0.0585,0.0819 -0.24556,0.29234 -0.24556,0.29234 -0.10763,0.10783 0.009,0.0543 -0.36209,0.37441 -0.0862,0.11135 -0.13968,0.29365 -0.1328,0.50231 0.007,0.20866 0.11295,0.25323 0.23529,0.35803 0.12234,0.1048 0.22633,0.15045 0.35314,0.23833 0.12681,0.0879 0.36248,0.28061 0.36248,0.28061 0,0 0.0935,0.33912 0.0819,0.38587 -0.0116,0.0468 -0.0248,0.35517 -0.0643,0.45604 -0.0395,0.10086 -0.22505,0.32137 -0.38002,0.39172 -0.15498,0.0703 -0.27152,0.0893 -0.38588,-0.006 -0.11436,-0.0951 -0.14764,-0.21861 -0.14034,-0.36248 0.007,-0.14387 0.0585,-0.37416 0.0936,-0.42095 0.0351,-0.0468 0.13967,-0.14962 0.10522,-0.26895 -0.0411,-0.14248 -0.40923,-0.35083 -0.4794,-0.36248 -0.0702,-0.0116 -0.39756,-0.0935 -0.47942,-0.15201 -0.0818,-0.0585 -0.39649,-0.2156 -0.5145,-0.35663 -0.11801,-0.14103 -0.19827,-0.22836 -0.18708,-0.38002 0.0112,-0.15166 0.10655,-0.28902 0.22218,-0.45603 0.20318,-0.2923 0.43006,-0.46342 0.69336,-0.73079 0.0144,-0.0343 -0.10333,-0.0877 -0.0885,-0.3506 0.0148,-0.26288 0.0616,-2.5552 0.0616,-2.5552 l -0.0165,0.47529 c 0,0 -0.48204,0.27993 -0.70502,0.36435 -0.22298,0.0844 -0.45599,0.17402 -0.65197,0.16825 -0.19598,-0.006 -0.41136,-0.0394 -0.49323,-0.15744 -0.0457,-0.0659 -0.021,-0.11038 -0.0497,-0.15984 -0.0227,-0.0391 -0.063,-0.0755 -0.0631,-0.13409 -1.2e-4,-0.072 0.0358,-0.11831 0.0424,-0.17124 0.005,-0.0445 -0.0201,-0.0971 -0.004,-0.13973 0.0354,-0.0934 0.0311,-0.1335 0.10419,-0.1623 0.0731,-0.0288 0.11438,-0.0378 0.18809,0.022 0.0737,0.0601 0.0792,0.15785 0.21048,0.21046 0.1313,0.0526 0.34345,-0.0161 0.45019,-0.0876 0.10674,-0.0715 0.39548,-0.35863 0.45396,-0.40542 0.0585,-0.0468 0.33883,-0.38219 0.42331,-0.55022 0.0845,-0.16802 0.13395,-0.44152 0.13395,-0.44152 0,0 -0.0163,-0.18887 -0.0932,-0.36392 -0.0463,-0.10544 -0.14667,-0.34445 -0.18631,-0.46329 -0.0397,-0.11884 -0.0517,-0.30011 -0.0868,-0.43761 -0.0351,-0.1375 -0.044,-0.43074 -0.044,-0.43074 0,0 -0.0526,-0.49402 0.14327,-0.90276 0.19588,-0.40875 0.68185,-0.7965 1.1742,-0.7965 0.49235,0 0.85584,0.15072 1.0955,0.40012 0.23966,0.2494 0.38774,0.6945 0.41371,1.0042 0.0265,0.31594 -0.003,0.65845 -0.0754,0.88591 -0.0324,0.10231 -0.0458,0.19815 -0.0833,0.27696 -0.0458,0.0964 -0.1148,0.17143 -0.14121,0.25259 -0.048,0.14751 -0.14604,0.31204 -0.14604,0.31204 z"
               inkscape:connector-curvature="0" />
            <path
               style="stroke:#666666;stroke-width:0.19501977;stroke-miterlimit:4;stroke-dasharray:none"
               id="path1081"
               d="m 661.84,188.37 c 0,0 0.14236,0.28101 0.39434,0.46193 0.25197,0.18092 0.40992,0.19822 0.70492,0.19822 0.295,0 0.61356,-0.1983 0.76129,-0.37818 0.14772,-0.17988 0.2881,-0.43928 0.2881,-0.43928"
               inkscape:connector-curvature="0" />
            <path
               style="stroke:#666666;stroke-width:0.19501977;stroke-miterlimit:4;stroke-dasharray:none"
               id="path1083"
               d="m 662.09,186.42 c 0,0 -0.04,0.34734 -0.0507,0.43503 -0.0107,0.0877 0.0332,0.1204 0.0332,0.1204"
               inkscape:connector-curvature="0" />
            <path
               style="stroke:#666666;stroke-width:0.19501977;stroke-miterlimit:4;stroke-dasharray:none"
               id="path1085"
               d="m 661.91,192.73 c 0,0 0.16863,0.26263 0.44647,0.41481 0.27784,0.15218 0.52163,0.13765 0.52163,0.13765"
               inkscape:connector-curvature="0" />
            <path
               style="stroke:#666666;stroke-width:0.19501977;stroke-miterlimit:4;stroke-dasharray:none"
               id="path1087"
               d="m 664.07,189.56 c 0,0 -0.14515,0.30777 -0.11495,0.4053 0.0302,0.0975 0.46153,0.20228 0.46153,0.20228"
               inkscape:connector-curvature="0" />
            <path
               style="stroke:#666666;stroke-width:0.19501977;stroke-miterlimit:4;stroke-dasharray:none"
               id="path1089"
               d="m 663.99,189.98 c -0.32825,0.10912 -0.33326,0.0165 -0.64581,-0.0927 0,0 -0.33,0.002 -0.37673,0.11759 -0.0467,0.11592 0.0497,0.10682 0.0289,0.18395 -0.0208,0.0771 -0.0913,0.086 -0.0827,0.16745 0.009,0.0814 0.0117,0.0649 0.0579,0.14051 0.0462,0.0756 -0.0494,0.0928 0.0867,0.23567 0.1361,0.1429 0.89297,-0.0331 0.89297,-0.0331 l 0.61184,0.30591"
               inkscape:connector-curvature="0" />
            <path
               style="stroke:#666666;stroke-width:0.19501977;stroke-miterlimit:4;stroke-dasharray:none"
               id="path1091"
               d="m 662.54,188.56 c 0,0 -0.0467,0.14617 0.32116,0.14617 0.36784,0 0.32115,-0.14617 0.32115,-0.14617"
               inkscape:connector-curvature="0" />
            <path
               style="stroke:#666666;stroke-width:0.19501977;stroke-miterlimit:4;stroke-dasharray:none"
               id="path1093"
               d="m 662.31,186.42 c 0,0 -0.0342,0.28887 -0.0448,0.37656 -0.0107,0.0877 0.0332,0.1204 0.0332,0.1204"
               inkscape:connector-curvature="0" />
            <path
               style="stroke:#666666;stroke-width:0.19501977;stroke-miterlimit:4;stroke-dasharray:none"
               id="path1095"
               d="m 662.54,186.42 c 0,0 -0.0341,0.17779 -0.0448,0.26548 -0.0107,0.0877 0.0332,0.1204 0.0332,0.1204"
               inkscape:connector-curvature="0" />
            <path
               style="stroke:#666666;stroke-width:0.19501977;stroke-miterlimit:4;stroke-dasharray:none"
               id="path1097"
               d="m 662.78,186.42 c 0,0 -0.0342,0.14856 -0.0448,0.23625 -0.0107,0.0877 0.0332,0.1204 0.0332,0.1204"
               inkscape:connector-curvature="0" />
            <path
               style="stroke:#666666;stroke-width:0.19501977;stroke-miterlimit:4;stroke-dasharray:none"
               id="path1099"
               d="m 662.18,187.84 c 0,0 0.0799,0.12609 0.2253,0.12609 0.14539,0 0.22531,-0.12609 0.22531,-0.12609"
               inkscape:connector-curvature="0" />
            <path
               style="stroke:#666666;stroke-width:0.19501977;stroke-miterlimit:4;stroke-dasharray:none"
               id="path1101"
               d="m 663.06,187.84 c 0,0 0.0799,0.12609 0.2253,0.12609 0.14539,0 0.22531,-0.12609 0.22531,-0.12609"
               inkscape:connector-curvature="0" />
            <path
               style="stroke:#666666;stroke-width:0.19501977;stroke-miterlimit:4;stroke-dasharray:none"
               id="path1103"
               d="m 662.44,193.74 c -0.0661,-0.0249 -0.2398,-0.17362 -0.2398,-0.17362"
               inkscape:connector-curvature="0" />
          </g>
        </g>
        <path
           inkscape:connector-curvature="0"
           id="path1109"
           d="M 65.825299,97.882409 A 64.915077,64.915077 0 0 0 36.339242,152.18488 H 55.62435 a 45.630036,45.630036 0 0 1 20.70229,-38.17567 z"
           style="opacity:1;fill:#de5245;fill-opacity:1;stroke:none;stroke-width:0.24144356;stroke-miterlimit:4;stroke-dasharray:none" />
        <path
           sodipodi:nodetypes="ccccc"
           inkscape:connector-curvature="0"
           id="path1111"
           d="m 113.9693,88.563516 -3.77246,18.889924 c 21.32255,4.26869 36.7688,23.01123 36.77145,44.75687 7.16057,-0.0476 13.61301,-0.0476 19.28511,0 0,-28.11184 -19.30894,-57.093105 -52.2841,-63.646794 z"
           style="opacity:1;fill:#ffffff;fill-opacity:1;stroke:none;stroke-width:0.24144356;stroke-miterlimit:4;stroke-dasharray:none" />
        <path
           sodipodi:nodetypes="ccccccccc"
           inkscape:connector-curvature="0"
           id="path1113"
           d="m 36.340666,152.14157 -0.0027,0.0687 c -1.85e-4,35.85167 29.063236,64.91532 64.914904,64.91541 34.94058,0 65.00056,-28.29513 65.00056,-64.91537 h -19.28511 c 0,25.29258 -20.24354,45.63025 -45.71545,45.63025 -25.200966,1.4e-4 -45.630421,-20.42932 -45.630279,-45.63029 l 0.0036,-0.0687 z"
           style="opacity:1;fill:#189f5d;fill-opacity:1;stroke:none;stroke-width:0.24144356;stroke-miterlimit:4;stroke-dasharray:none" />
        <g
           id="g1117"
           style="font-style:normal;font-weight:normal;font-size:10.58333302px;line-height:1.25;font-family:sans-serif;letter-spacing:0px;word-spacing:0px;fill:#000000;fill-opacity:1;stroke:none;stroke-width:0.26458332"
           transform="matrix(-0.02197496,0.91084277,-0.91084277,-0.02197496,-44.663661,77.711142)"
           aria-label="x">
          <path
             inkscape:connector-curvature="0"
             id="path1115"
             style="stroke-width:0.26458332"
             d="m 72.394796,-225.51107 -2.092896,2.81636 2.201416,2.9714 h -1.121378 l -1.684652,-2.27377 -1.684652,2.27377 h -1.121378 l 2.247924,-3.02824 -2.056722,-2.75952 h 1.121379 l 1.53479,2.06189 1.53479,-2.06189 z" />
        </g>
        <path
           style="fill:#999999;stroke:#666666;stroke-width:0.91110784;stroke-linecap:round;stroke-linejoin:miter;stroke-miterlimit:4;stroke-dasharray:none;stroke-opacity:1"
           d="m 147.41984,152.19923 h 18.37772"
           id="path1119"
           inkscape:connector-curvature="0"
           sodipodi:nodetypes="cc" />
        <path
           inkscape:connector-curvature="0"
           id="path1121"
           d="M 113.9693,88.563516 C 92.471777,84.291038 75.314533,91.563687 65.825299,97.882409 L 76.32664,114.00921 c 5.899852,-4.07587 18.759941,-9.54895 33.8702,-6.55577 z"
           style="opacity:1;fill:#ffce45;fill-opacity:1;stroke:none;stroke-width:0.24144356;stroke-miterlimit:4;stroke-dasharray:none"
           inkscape:transform-center-x="32.456398"
           inkscape:transform-center-y="16.631"
           sodipodi:nodetypes="ccccc" />
        <g
           inkscape:transform-center-y="-17.131035"
           inkscape:transform-center-x="3.4277258"
           id="g1133">
          <path
             style="fill:#999999;stroke:#666666;stroke-width:0.91110784;stroke-linecap:round;stroke-linejoin:miter;stroke-miterlimit:4;stroke-dasharray:none;stroke-opacity:1"
             d="M 36.788703,152.19923 H 101.25337"
             id="path1123"
             inkscape:connector-curvature="0"
             sodipodi:nodetypes="cc" />
          <path
             sodipodi:nodetypes="cc"
             inkscape:connector-curvature="0"
             id="path1125"
             d="m 158.94887,181.13707 -57.6955,-28.93784"
             style="fill:#999999;stroke:#666666;stroke-width:0.91110784;stroke-linecap:round;stroke-linejoin:miter;stroke-miterlimit:4;stroke-dasharray:none;stroke-opacity:1" />
          <path
             sodipodi:nodetypes="cc"
             inkscape:connector-curvature="0"
             id="path1127"
             d="M 66.149032,98.198594 101.25337,152.19923"
             style="fill:#999999;stroke:#666666;stroke-width:0.91110784;stroke-linecap:round;stroke-linejoin:miter;stroke-miterlimit:4;stroke-dasharray:none;stroke-opacity:1" />
          <path
             style="fill:#999999;stroke:#666666;stroke-width:0.91110784;stroke-linecap:round;stroke-linejoin:miter;stroke-miterlimit:4;stroke-dasharray:none;stroke-opacity:1"
             d="M 113.88064,89.009387 101.25337,152.19923"
             id="path1129"
             inkscape:connector-curvature="0"
             sodipodi:nodetypes="cc" />
          <circle
             style="opacity:1;fill:#666666;fill-opacity:1;stroke:none;stroke-width:0.30276254;stroke-miterlimit:4;stroke-dasharray:none"
             id="circle1131"
             cx="101.29558"
             cy="152.20442"
             r="2.3805063" />
        </g>
      </g>
    </g>
    <g
       id="g993"
       transform="translate(-210.66184,151.70137)">
      <circle
         style="opacity:1;fill:#f2f2f2;fill-opacity:1;stroke:none;stroke-width:0.94869268;stroke-miterlimit:4;stroke-dasharray:none"
         id="circle934"
         cx="104.16382"
         cy="154.79951"
         r="50.672298" />
      <path
         inkscape:connector-curvature="0"
         style="opacity:1;fill:#b3b3b3;fill-opacity:1;stroke:none;stroke-width:0.18959002;stroke-miterlimit:4;stroke-dasharray:none"
         d="m 101.29582,84.83587 c -37.206807,-1.1e-4 -67.36891,30.16199 -67.368801,67.3688 1.55e-4,37.20662 30.162181,67.36843 67.368801,67.36832 37.20642,-1.6e-4 67.36816,-30.1619 67.36832,-67.36832 1.1e-4,-37.20662 -30.1617,-67.368645 -67.36832,-67.3688 z m -3e-5,26.18048 c 22.74766,6e-5 41.18826,18.44065 41.18832,41.18832 -6e-5,22.74766 -18.44066,41.18826 -41.18832,41.18831 -22.747826,1.9e-4 -41.188694,-18.44048 -41.188741,-41.18831 4.7e-5,-22.74783 18.440915,-41.1885 41.188741,-41.18832 z"
         id="path936"
         sodipodi:nodetypes="cccccccccc" />
      <g
         transform="matrix(2.3179518,0,0,2.3179518,-59.920709,-188.70144)"
         id="g967"
         style="stroke:#666666;stroke-width:0.35632783;stroke-miterlimit:4;stroke-dasharray:none">
        <g
           style="fill:none;stroke:#666666;stroke-width:0.2853958;stroke-miterlimit:4;stroke-dasharray:none"
           transform="matrix(1.2258,0,0,1.2717,-735.43,-103.14)"
           id="g965">
          <path
             inkscape:connector-curvature="0"
             d="m 663.94,188.44 c 0,0 0.38416,0.29093 0.72437,0.77216 0.3805,0.53823 0.69683,1.1992 0.70218,1.3443 0.005,0.14504 -0.089,0.39486 -0.19878,0.44434 -0.10977,0.0495 -0.40947,-0.0127 -0.61974,0.0117 -0.10522,0.006 -0.23588,0.0346 -0.27093,0.17482 -0.0351,0.14031 -0.11128,0.28971 -0.0528,0.57035 0.0585,0.28064 0.1951,0.48258 0.24188,0.58782 0.0468,0.10524 0.17766,0.39987 0.19296,0.58468 0.0153,0.18481 -2e-5,0.30985 -0.076,0.49109 -0.1111,0.1579 -0.28144,0.34658 -0.38587,0.53788 -0.10443,0.1913 -0.11456,0.31759 -0.0526,0.54374 0.0619,0.22615 0.21279,0.70304 0.25142,0.84775 0.0386,0.14471 0.0707,0.25866 0.10794,0.40796 0.0372,0.1493 0.0825,0.35106 0.0331,0.51301 -0.0495,0.16195 -0.14442,0.24437 -0.24828,0.33011 -0.10386,0.0857 -0.24543,0.15802 -0.38114,0.1699 -0.13571,0.0119 -0.30388,-0.009 -0.37925,-0.0883 -0.0754,-0.0795 -0.0966,-0.16051 -0.11521,-0.24971 -0.0186,-0.0892 0.025,-0.2003 0.0948,-0.27382 0.0698,-0.0735 0.19112,-0.073 0.25672,-0.10755 0.0656,-0.0346 0.10356,-0.14434 0.10523,-0.25725 0.002,-0.11291 -0.0712,-0.24362 -0.14031,-0.37418 -0.0691,-0.13056 -0.29305,-0.34382 -0.29305,-0.34382 0,0 -0.40749,-0.34018 -0.46597,-0.36357 -0.0585,-0.0233 -0.51818,-0.32513 -0.54152,-0.45376 -0.0234,-0.12863 -0.0339,-0.2361 0.005,-0.39982 0.0393,-0.16372 0.15818,-0.29053 0.20405,-0.33096 0.0459,-0.0404 0.29858,-0.21943 0.36899,-0.30788 0.0704,-0.0884 0.2404,-0.28059 0.2404,-0.28059 0,0 -0.044,-0.057 -0.10245,0.0248 -0.0585,0.0819 -0.24556,0.29234 -0.24556,0.29234 -0.10763,0.10783 0.009,0.0543 -0.36209,0.37441 -0.0862,0.11135 -0.13968,0.29365 -0.1328,0.50231 0.007,0.20866 0.11295,0.25323 0.23529,0.35803 0.12234,0.1048 0.22633,0.15045 0.35314,0.23833 0.12681,0.0879 0.36248,0.28061 0.36248,0.28061 0,0 0.0935,0.33912 0.0819,0.38587 -0.0116,0.0468 -0.0248,0.35517 -0.0643,0.45604 -0.0395,0.10086 -0.22505,0.32137 -0.38002,0.39172 -0.15498,0.0703 -0.27152,0.0893 -0.38588,-0.006 -0.11436,-0.0951 -0.14764,-0.21861 -0.14034,-0.36248 0.007,-0.14387 0.0585,-0.37416 0.0936,-0.42095 0.0351,-0.0468 0.13967,-0.14962 0.10522,-0.26895 -0.0411,-0.14248 -0.40923,-0.35083 -0.4794,-0.36248 -0.0702,-0.0116 -0.39756,-0.0935 -0.47942,-0.15201 -0.0818,-0.0585 -0.39649,-0.2156 -0.5145,-0.35663 -0.11801,-0.14103 -0.19827,-0.22836 -0.18708,-0.38002 0.0112,-0.15166 0.10655,-0.28902 0.22218,-0.45603 0.20318,-0.2923 0.43006,-0.46342 0.69336,-0.73079 0.0144,-0.0343 -0.10333,-0.0877 -0.0885,-0.3506 0.0148,-0.26288 0.0616,-2.5552 0.0616,-2.5552 l -0.0165,0.47529 c 0,0 -0.48204,0.27993 -0.70502,0.36435 -0.22298,0.0844 -0.45599,0.17402 -0.65197,0.16825 -0.19598,-0.006 -0.41136,-0.0394 -0.49323,-0.15744 -0.0457,-0.0659 -0.021,-0.11038 -0.0497,-0.15984 -0.0227,-0.0391 -0.063,-0.0755 -0.0631,-0.13409 -1.2e-4,-0.072 0.0358,-0.11831 0.0424,-0.17124 0.005,-0.0445 -0.0201,-0.0971 -0.004,-0.13973 0.0354,-0.0934 0.0311,-0.1335 0.10419,-0.1623 0.0731,-0.0288 0.11438,-0.0378 0.18809,0.022 0.0737,0.0601 0.0792,0.15785 0.21048,0.21046 0.1313,0.0526 0.34345,-0.0161 0.45019,-0.0876 0.10674,-0.0715 0.39548,-0.35863 0.45396,-0.40542 0.0585,-0.0468 0.33883,-0.38219 0.42331,-0.55022 0.0845,-0.16802 0.13395,-0.44152 0.13395,-0.44152 0,0 -0.0163,-0.18887 -0.0932,-0.36392 -0.0463,-0.10544 -0.14667,-0.34445 -0.18631,-0.46329 -0.0397,-0.11884 -0.0517,-0.30011 -0.0868,-0.43761 -0.0351,-0.1375 -0.044,-0.43074 -0.044,-0.43074 0,0 -0.0526,-0.49402 0.14327,-0.90276 0.19588,-0.40875 0.68185,-0.7965 1.1742,-0.7965 0.49235,0 0.85584,0.15072 1.0955,0.40012 0.23966,0.2494 0.38774,0.6945 0.41371,1.0042 0.0265,0.31594 -0.003,0.65845 -0.0754,0.88591 -0.0324,0.10231 -0.0458,0.19815 -0.0833,0.27696 -0.0458,0.0964 -0.1148,0.17143 -0.14121,0.25259 -0.048,0.14751 -0.14604,0.31204 -0.14604,0.31204 z"
             id="path938"
             style="stroke:#666666;stroke-width:0.2853958;stroke-miterlimit:4;stroke-dasharray:none" />
          <path
             inkscape:connector-curvature="0"
             d="m 661.84,188.37 c 0,0 0.14236,0.28101 0.39434,0.46193 0.25197,0.18092 0.40992,0.19822 0.70492,0.19822 0.295,0 0.61356,-0.1983 0.76129,-0.37818 0.14772,-0.17988 0.2881,-0.43928 0.2881,-0.43928"
             id="path940"
             style="stroke:#666666;stroke-width:0.2853958;stroke-miterlimit:4;stroke-dasharray:none" />
          <path
             inkscape:connector-curvature="0"
             d="m 662.09,186.42 c 0,0 -0.04,0.34734 -0.0507,0.43503 -0.0107,0.0877 0.0332,0.1204 0.0332,0.1204"
             id="path942"
             style="stroke:#666666;stroke-width:0.2853958;stroke-miterlimit:4;stroke-dasharray:none" />
          <path
             inkscape:connector-curvature="0"
             d="m 661.91,192.73 c 0,0 0.16863,0.26263 0.44647,0.41481 0.27784,0.15218 0.52163,0.13765 0.52163,0.13765"
             id="path945"
             style="stroke:#666666;stroke-width:0.2853958;stroke-miterlimit:4;stroke-dasharray:none" />
          <path
             inkscape:connector-curvature="0"
             d="m 664.07,189.56 c 0,0 -0.14515,0.30777 -0.11495,0.4053 0.0302,0.0975 0.46153,0.20228 0.46153,0.20228"
             id="path947"
             style="stroke:#666666;stroke-width:0.2853958;stroke-miterlimit:4;stroke-dasharray:none" />
          <path
             inkscape:connector-curvature="0"
             d="m 663.99,189.98 c -0.32825,0.10912 -0.33326,0.0165 -0.64581,-0.0927 0,0 -0.33,0.002 -0.37673,0.11759 -0.0467,0.11592 0.0497,0.10682 0.0289,0.18395 -0.0208,0.0771 -0.0913,0.086 -0.0827,0.16745 0.009,0.0814 0.0117,0.0649 0.0579,0.14051 0.0462,0.0756 -0.0494,0.0928 0.0867,0.23567 0.1361,0.1429 0.89297,-0.0331 0.89297,-0.0331 l 0.61184,0.30591"
             id="path949"
             style="stroke:#666666;stroke-width:0.2853958;stroke-miterlimit:4;stroke-dasharray:none" />
          <path
             inkscape:connector-curvature="0"
             d="m 662.54,188.56 c 0,0 -0.0467,0.14617 0.32116,0.14617 0.36784,0 0.32115,-0.14617 0.32115,-0.14617"
             id="path951"
             style="stroke:#666666;stroke-width:0.2853958;stroke-miterlimit:4;stroke-dasharray:none" />
          <path
             inkscape:connector-curvature="0"
             d="m 662.31,186.42 c 0,0 -0.0342,0.28887 -0.0448,0.37656 -0.0107,0.0877 0.0332,0.1204 0.0332,0.1204"
             id="path953"
             style="stroke:#666666;stroke-width:0.2853958;stroke-miterlimit:4;stroke-dasharray:none" />
          <path
             inkscape:connector-curvature="0"
             d="m 662.54,186.42 c 0,0 -0.0341,0.17779 -0.0448,0.26548 -0.0107,0.0877 0.0332,0.1204 0.0332,0.1204"
             id="path955"
             style="stroke:#666666;stroke-width:0.2853958;stroke-miterlimit:4;stroke-dasharray:none" />
          <path
             inkscape:connector-curvature="0"
             d="m 662.78,186.42 c 0,0 -0.0342,0.14856 -0.0448,0.23625 -0.0107,0.0877 0.0332,0.1204 0.0332,0.1204"
             id="path957"
             style="stroke:#666666;stroke-width:0.2853958;stroke-miterlimit:4;stroke-dasharray:none" />
          <path
             inkscape:connector-curvature="0"
             d="m 662.18,187.84 c 0,0 0.0799,0.12609 0.2253,0.12609 0.14539,0 0.22531,-0.12609 0.22531,-0.12609"
             id="path959"
             style="stroke:#666666;stroke-width:0.2853958;stroke-miterlimit:4;stroke-dasharray:none" />
          <path
             inkscape:connector-curvature="0"
             d="m 663.06,187.84 c 0,0 0.0799,0.12609 0.2253,0.12609 0.14539,0 0.22531,-0.12609 0.22531,-0.12609"
             id="path961"
             style="stroke:#666666;stroke-width:0.2853958;stroke-miterlimit:4;stroke-dasharray:none" />
          <path
             inkscape:connector-curvature="0"
             d="m 662.44,193.74 c -0.0661,-0.0249 -0.2398,-0.17362 -0.2398,-0.17362"
             id="path963"
             style="stroke:#666666;stroke-width:0.2853958;stroke-miterlimit:4;stroke-dasharray:none" />
        </g>
      </g>
      <path
         style="opacity:1;fill:#d40000;fill-opacity:1;stroke:none;stroke-width:0.24927559;stroke-miterlimit:4;stroke-dasharray:none"
         d="m 64.6747,96.12029 c -18.961529,12.35029 -30.410474,33.43503 -30.442537,56.06396 l 25.373795,0.0552 c 0.01342,-14.06094 7.120166,-27.166 18.897463,-34.84751 z"
         id="path969"
         inkscape:connector-curvature="0"
         sodipodi:nodetypes="ccccc" />
      <path
         style="opacity:1;fill:#ffffff;fill-opacity:1;stroke:none;stroke-width:0.24927559;stroke-miterlimit:4;stroke-dasharray:none"
         d="m 114.38042,86.499107 -4.95961,24.908663 c 19.46365,3.89655 33.56329,21.00512 33.56572,40.85496 6.5363,-0.0435 19.5179,-0.10138 25.374,-0.0522 0,-29.02374 -19.93529,-58.945113 -53.98011,-65.711393 z"
         id="path971"
         inkscape:connector-curvature="0"
         sodipodi:nodetypes="ccccc" />
      <path
         style="opacity:1;fill:#008033;fill-opacity:1;stroke:none;stroke-width:0.24927559;stroke-miterlimit:4;stroke-dasharray:none"
         d="m 34.233633,152.13953 -0.0028,0.0709 c -1.91e-4,37.01464 30.006001,67.02107 67.020637,67.02116 36.074,0 67.10908,-29.21298 67.10908,-67.02112 l -25.37401,0.0522 c 0,23.08758 -18.47871,41.65221 -41.72998,41.65221 -23.003936,1.3e-4 -41.652349,-18.64829 -41.652219,-41.65224 l 0.0033,-0.0627 z"
         id="path973"
         inkscape:connector-curvature="0"
         sodipodi:nodetypes="ccccccccc" />
      <g
         aria-label="x"
         transform="matrix(-0.02268779,0.94038905,-0.94038905,-0.02268779,-49.398345,75.2947)"
         style="font-style:normal;font-weight:normal;font-size:10.58333302px;line-height:1.25;font-family:sans-serif;letter-spacing:0px;word-spacing:0px;fill:#000000;fill-opacity:1;stroke:none;stroke-width:0.26458332"
         id="g977">
        <path
           d="m 72.394796,-225.51107 -2.092896,2.81636 2.201416,2.9714 h -1.121378 l -1.684652,-2.27377 -1.684652,2.27377 h -1.121378 l 2.247924,-3.02824 -2.056722,-2.75952 h 1.121379 l 1.53479,2.06189 1.53479,-2.06189 z"
           style="stroke-width:0.26458332"
           id="path975"
           inkscape:connector-curvature="0" />
      </g>
      <path
         sodipodi:nodetypes="cc"
         inkscape:connector-curvature="0"
         id="path979"
         d="m 143.71942,152.19906 h 23.86867"
         style="fill:#999999;stroke:#666666;stroke-width:1.54865766;stroke-linecap:round;stroke-linejoin:miter;stroke-miterlimit:4;stroke-dasharray:none;stroke-opacity:1" />
      <path
         sodipodi:nodetypes="ccccc"
         inkscape:transform-center-y="16.631"
         inkscape:transform-center-x="32.456398"
         style="opacity:1;fill:#ffcc00;fill-opacity:1;stroke:none;stroke-width:0.24927559;stroke-miterlimit:4;stroke-dasharray:none"
         d="M 114.38042,86.499107 C 92.185547,82.088037 74.47175,89.596599 64.6747,96.12029 l 13.828721,21.27172 c 5.385502,-3.72053 17.124446,-8.71647 30.917389,-5.98424 z"
         id="path981"
         inkscape:connector-curvature="0" />
      <path
         style="fill:#999999;stroke:#666666;stroke-width:1.54865766;stroke-linecap:round;stroke-linejoin:miter;stroke-miterlimit:4;stroke-dasharray:none;stroke-opacity:1"
         d="m 35.016121,152.17491 66.235879,0.0242"
         id="path983"
         inkscape:connector-curvature="0"
         sodipodi:nodetypes="cc" />
      <path
         sodipodi:nodetypes="cc"
         inkscape:connector-curvature="0"
         id="path985"
         d="M 160.56295,181.91768 101.252,152.19906"
         style="fill:#999999;stroke:#666666;stroke-width:1.54865766;stroke-linecap:round;stroke-linejoin:miter;stroke-miterlimit:4;stroke-dasharray:none;stroke-opacity:1" />
      <path
         sodipodi:nodetypes="cc"
         inkscape:connector-curvature="0"
         id="path987"
         d="M 65.136981,96.741239 101.252,152.19906"
         style="fill:#999999;stroke:#666666;stroke-width:1.54865766;stroke-linecap:round;stroke-linejoin:miter;stroke-miterlimit:4;stroke-dasharray:none;stroke-opacity:1" />
      <path
         style="fill:#666666;stroke:#666666;stroke-width:1.54865766;stroke-linecap:round;stroke-linejoin:miter;stroke-miterlimit:4;stroke-dasharray:none;stroke-opacity:1;marker-start:url(#Arrow2Mstart)"
         d="M 113.91085,89.030446 101.252,152.19906"
         id="path989"
         inkscape:connector-curvature="0"
         sodipodi:nodetypes="cc" />
      <circle
         style="opacity:1;fill:#666666;fill-opacity:1;stroke:none;stroke-width:0.31258368;stroke-miterlimit:4;stroke-dasharray:none"
         id="circle991"
         cx="101.29558"
         cy="152.20442"
         r="2.457726" />
    </g>
  </g>
</svg>
