<svg width="512" height="512" version="1.1" viewBox="0 0 135.47 135.47" xmlns="http://www.w3.org/2000/svg">
 <defs>
  <marker id="marker1026" overflow="visible" orient="auto">
   <path transform="scale(.6)" d="m8.7186 4.0337-10.926-4.0177 10.926-4.0177c-1.7455 2.3721-1.7354 5.6175-6e-7 8.0354z" fill="#4d4d4d" fill-rule="evenodd" stroke="#4d4d4d" stroke-linejoin="round" stroke-width=".625"/>
  </marker>
 </defs>
 <g transform="translate(211.82 176.8)">
  <g>
   <path d="m-144.08-176.44c-37.208-1.1e-4 -67.371 30.163-67.37 67.37 1.5e-4 37.208 30.163 67.37 67.37 67.37 37.207-1.6e-4 67.37-30.163 67.37-67.37 1.1e-4 -37.208-30.162-67.37-67.37-67.37zm-3e-5 26.181c22.748 6e-5 41.189 18.441 41.189 41.189-6e-5 22.748-18.441 41.189-41.189 41.189-22.748 1.9e-4 -41.19-18.441-41.19-41.189 5e-5 -22.748 18.441-41.19 41.19-41.189z" fill="#b3b3b3"/>
   <path d="m-180.7-165.15c-18.962 12.351-30.411 33.436-30.443 56.065l25.374 0.0552c0.0134-14.061 7.1203-27.167 18.898-34.848z" fill="#d40000"/>
   <path d="m-131-174.77-4.9597 24.909c19.464 3.8966 33.564 21.006 33.567 40.856 6.5365-0.0435 19.518-0.10138 25.375-0.0522 0-29.024-19.936-58.947-53.981-65.713z" fill="#fff"/>
   <path d="m-211.14-109.13-3e-3 0.0709c-1.9e-4 37.016 30.007 67.023 67.022 67.023 36.075 0 67.111-29.214 67.111-67.023l-25.375 0.0522c0 23.088-18.479 41.653-41.731 41.653-23.004 1.3e-4 -41.653-18.649-41.653-41.653l3e-3 -0.0627z" fill="#008033"/>
  </g>
  <path d="m-101.62-109.07h23.834" fill="#999" stroke="#4d4d4d" stroke-linecap="square" stroke-width="1.5479"/>
  <path d="m-131-174.77c-22.195-4.4112-39.91 3.0976-49.707 9.6214l13.829 21.272c5.3856-3.7206 17.125-8.7167 30.918-5.9844z" fill="#fc0"/>
  <g stroke="#4d4d4d" stroke-linecap="round" stroke-width="1.5487">
   <path d="m-210.36-109.09 66.238 0.0242" fill="#999"/>
   <path d="m-84.812-79.351-59.312-29.719" fill="none"/>
   <path d="m-180.24-164.53 36.116 55.459" fill="#999"/>
   <path d="m-131.46-172.24-12.659 63.17" fill="#4d4d4d" marker-start="url(#marker1026)"/>
  </g>
  <circle cx="-144.08" cy="-109.06" r="5.33" fill="#04a"/>
 </g>
</svg>
