<svg width="6.8756mm" height="6.8756mm" version="1.1" viewBox="0 0 6.8756 6.8756" xmlns="http://www.w3.org/2000/svg">
 <path transform="scale(.26458)" d="m4.3789 1.0098c-1.0298 0-1.8711 0.84125-1.8711 1.8711v20.223c0 1.0298 0.84125 1.873 1.8711 1.873h17.227c1.0298 0 1.873-0.8432 1.873-1.873v-14.23c0-1.0298-0.59398-2.466-1.3242-3.1953h-0.001953l-3.3418-3.3438c-0.73024-0.72789-2.1674-1.3242-3.1973-1.3242h-11.234zm0 1.498h11.234c0.11235 0 0.23925 0.013314 0.375 0.039062v5.9551h5.9492c0.028082 0.13575 0.042969 0.2607 0.042969 0.37305v14.229 0.001953c-0.001127 0.20044-0.17438 0.37305-0.375 0.37305h-17.227c-0.20315 0-0.37305-0.17371-0.37305-0.375v-20.223c0-0.20315 0.16989-0.37305 0.37305-0.37305zm13.107 0.66797c0.10298 0.071154 0.19268 0.14377 0.26758 0.2168l3.3418 3.3418c0.074895 0.074895 0.14463 0.16264 0.21484 0.26562h-3.8242v-3.8242z" stroke-width=".04681"/>
 <path d="m5.4007 4.1907c-0.026009 0.016101-0.10032 0.026009-0.14738 0.026009-0.15358 0-0.34184-0.070595-0.60812-0.18455 0.1028-0.00743 0.19569-0.011147 0.27991-0.011147 0.15358 0 0.19816 0 0.34927 0.038394 0.14986 0.037156 0.15109 0.11518 0.12633 0.13128zm-2.664 0.023531c0.059449-0.10404 0.12014-0.21427 0.18206-0.33192 0.15109-0.28609 0.24771-0.51151 0.3183-0.69605 0.14243 0.25885 0.31954 0.47807 0.52637 0.65394 0.026009 0.022293 0.053257 0.043349 0.08298 0.065642-0.42234 0.08422-0.7877 0.18578-1.1097 0.3084zm0.49293-2.7111c0.08422 0 0.13252 0.2113 0.13623 0.41069 0.00372 0.19816-0.042109 0.33687-0.10032 0.44092-0.048302-0.15358-0.070596-0.39385-0.070596-0.55114 0 0-0.00372-0.30046 0.034678-0.30046zm-1.6521 3.8048c0.048302-0.13004 0.23656-0.38765 0.51522-0.61678 0.017339-0.013623 0.060687-0.054494 0.10032-0.09165-0.29106 0.46569-0.48673 0.65022-0.61555 0.70843zm3.9039-1.3909c-0.08422-0.08298-0.27248-0.12633-0.55734-0.13004-0.19321-0.0024773-0.42481 0.014863-0.67004 0.048302-0.10899-0.063164-0.2217-0.13128-0.31087-0.21427-0.23779-0.22293-0.43595-0.53133-0.55981-0.87069 0.00743-0.032201 0.014863-0.059449 0.021055-0.087935 0 0 0.13376-0.76169 0.097843-1.0193-0.00495-0.035916-0.00743-0.045826-0.01734-0.073072l-0.011147-0.030964c-0.035917-0.083723-0.10775-0.1729-0.22045-0.16807l-0.065642-0.00211h-0.00123c-0.12509 0-0.22788 0.064031-0.2539 0.15903-0.081742 0.30095 0.00248 0.7493 0.15481 1.3302l-0.039633 0.095366c-0.10899 0.26505-0.24523 0.53257-0.36537 0.76788l-0.016101 0.030963c-0.12633 0.24771-0.24151 0.45826-0.34555 0.63659l-0.10775 0.056972c-0.0074306 0.0049546-0.19198 0.10156-0.23531 0.12757-0.3666 0.21922-0.61035 0.46816-0.65072 0.66633-0.01288 0.061926-0.00322 0.14243 0.06205 0.18083l0.10404 0.052019c0.044958 0.022293 0.093261 0.033439 0.14157 0.033439 0.26133 0 0.56477-0.32449 0.98214-1.054 0.48302-0.15729 1.0329-0.28857 1.5147-0.36041 0.3666 0.20684 0.81742 0.3505 1.1023 0.3505 0.050779 0 0.094128-0.00495 0.13004-0.014863 0.054494-0.013623 0.10032-0.044587 0.12881-0.087935 0.054496-0.08298 0.06688-0.19693 0.05078-0.31458-0.00372-0.034679-0.032201-0.078027-0.061926-0.10775z" stroke-width=".012385"/>
</svg>
