<svg width="6.8756mm" height="6.8756mm" version="1.1" viewBox="0 0 6.8756 6.8756" xmlns="http://www.w3.org/2000/svg">
 <circle cx="3.4378" cy="3.4378" r="2.9104" fill="#04a"/>
 <g fill="#fff" stroke-width=".13338" aria-label="?">
  <path d="m3.3098 1.9279q-0.35214 0-0.68827 0.1814l-0.13872-0.38415q0.1814-0.096037 0.40549-0.15473 0.22942-0.058689 0.48552-0.058689 0.30412 0 0.49619 0.085366 0.19741 0.080031 0.31479 0.20808t0.16006 0.28811q0.048019 0.15473 0.048019 0.29878 0 0.1814-0.06936 0.32546-0.069361 0.13872-0.17073 0.26144t-0.22409 0.23476-0.22409 0.23476q-0.10137 0.11738-0.17073 0.26143-0.06936 0.13872-0.06936 0.31479 0 0.026677 0 0.058689t0.00534 0.058689h-0.41617q-0.021342-0.10671-0.021342-0.22409 0-0.17073 0.058689-0.30945 0.064025-0.13872 0.16006-0.2561 0.096037-0.12271 0.20275-0.22409 0.10671-0.10671 0.20275-0.21342 0.096037-0.10671 0.15473-0.22409 0.064025-0.11738 0.064025-0.2561 0-0.22409-0.14406-0.36281-0.14406-0.14406-0.4215-0.14406zm0.33613 3.0785q0 0.14406-0.096037 0.25076t-0.26143 0.10671q-0.1654 0-0.26143-0.10671-0.096037-0.10671-0.096037-0.25076t0.096037-0.25076 0.26143-0.10671q0.1654 0 0.26143 0.10671 0.096037 0.10671 0.096037 0.25076z" fill="#fff" stroke-width=".13338"/>
 </g>
</svg>
